<?xml version="1.0" standalone="no"?><!DOCTYPE svg PUBLIC "-//W3C//DTD SVG 1.1//EN" "http://www.w3.org/Graphics/SVG/1.1/DTD/svg11.dtd"><svg t="1689264025010" class="icon" viewBox="0 0 1024 1024" version="1.1" xmlns="http://www.w3.org/2000/svg" p-id="25557" data-spm-anchor-id="a313x.7781069.0.i12" xmlns:xlink="http://www.w3.org/1999/xlink" width="200" height="200"><path d="M402.773333 368.64h-273.066666v-273.066667h273.066666v273.066667z m-238.933333-34.133333h204.8v-204.8h-204.8v204.8zM948.906667 368.64h-273.066667v-273.066667h273.066667v273.066667z m-238.933334-34.133333h204.8v-204.8h-204.8v204.8zM402.773333 914.773333h-273.066666v-273.066666h273.066666v273.066666z m-238.933333-34.133333h204.8v-204.8h-204.8v204.8z" fill="#d81e06" p-id="25558" data-spm-anchor-id="a313x.7781069.0.i10" class="selected"></path><path d="M402.773333 453.973333h-34.133333v-17.066666h-204.8v-34.133334h238.933333zM368.64 607.573333h-238.933333v-51.2h34.133333v17.066667h204.8zM948.906667 914.773333h-85.333334v-34.133333h51.2v-221.866667h34.133334zM471.04 880.64h-34.133333v-238.933333h51.2v34.133333h-17.066667zM556.373333 880.64h204.8v34.133333h-204.8zM522.24 812.373333h102.4v34.133334h-102.4zM761.173333 812.373333h102.4v34.133334h-102.4zM761.173333 641.706667h68.266667v34.133333h-68.266667zM658.773333 641.706667h34.133334v34.133333h-34.133334zM556.373333 641.706667h34.133334v34.133333h-34.133334zM744.106667 727.04h34.133333v34.133333h-34.133333zM846.506667 727.04h34.133333v34.133333h-34.133333zM505.173333 727.04h34.133334v34.133333h-34.133334zM607.573333 727.04h34.133334v34.133333h-34.133334zM180.906667 471.04h34.133333v34.133333h-34.133333zM283.306667 505.173333h34.133333v34.133334h-34.133333zM658.773333 573.44h273.066667v34.133333h-273.066667zM658.773333 402.773333h273.066667v34.133334h-273.066667zM453.973333 95.573333h170.666667v34.133334h-170.666667zM436.906667 180.906667h34.133333v170.666666h-34.133333zM505.173333 180.906667h34.133334v34.133333h-34.133334zM539.306667 283.306667h34.133333v34.133333h-34.133333z" fill="#1296db" p-id="25559" data-spm-anchor-id="a313x.7781069.0.i13" class=""></path><path d="M607.573333 112.64h34.133334v204.8h-34.133334zM778.24 522.24h34.133333v51.2h-34.133333zM914.773333 488.106667h34.133334v34.133333h-34.133334zM641.706667 488.106667h34.133333v34.133333h-34.133333zM709.973333 488.106667h34.133334v34.133333h-34.133334zM436.906667 419.84h34.133333v170.666667h-34.133333zM471.04 436.906667h51.2v34.133333h-51.2zM573.44 385.706667h34.133333v170.666666h-34.133333zM522.24 505.173333h51.2v34.133334h-51.2z" fill="#1296db" p-id="25560" data-spm-anchor-id="a313x.7781069.0.i14" class=""></path><path d="M334.506667 300.373333h-136.533334v-136.533333h136.533334v136.533333z m-102.4-34.133333h68.266666v-68.266667h-68.266666v68.266667zM880.64 300.373333h-136.533333v-136.533333h136.533333v136.533333z m-102.4-34.133333h68.266667v-68.266667h-68.266667v68.266667zM334.506667 846.506667h-136.533334v-136.533334h136.533334v136.533334z m-102.4-34.133334h68.266666v-68.266666h-68.266666v68.266666z" fill="#d81e06" p-id="25561" data-spm-anchor-id="a313x.7781069.0.i9" class="selected"></path></svg>