<?xml version="1.0" standalone="no"?><!DOCTYPE svg PUBLIC "-//W3C//DTD SVG 1.1//EN" "http://www.w3.org/Graphics/SVG/1.1/DTD/svg11.dtd"><svg t="1689244954653" class="icon" viewBox="0 0 1024 1024" version="1.1" xmlns="http://www.w3.org/2000/svg" p-id="1814" xmlns:xlink="http://www.w3.org/1999/xlink" width="200" height="200"><path d="M134.8 791.7c-1.5 0-2.8-0.8-3.5-2.1L120.4 770c-1.1-1.9-0.4-4.4 1.6-5.4s4.4-0.4 5.4 1.6l10.9 19.5c1.1 1.9 0.4 4.4-1.6 5.4-0.5 0.4-1.2 0.6-1.9 0.6z" fill="#00B7EE" p-id="1815"></path><path d="M119.6 787.4c-2.2 0-4-1.7-4-4 0-1.5 0.8-2.8 2-3.5l19.6-10.9c1.9-1.1 4.4-0.4 5.4 1.6s0.4 4.4-1.6 5.4l-19.5 10.9c-0.6 0.3-1.2 0.5-1.9 0.5z" fill="#00B7EE" p-id="1816"></path><path d="M644.5 864c-1.8 0-3.4-1.2-3.9-3l-6.3-23.4c-0.6-2.1 0.7-4.3 2.8-4.9 2.1-0.6 4.3 0.7 4.9 2.8l6.3 23.4c0.6 2.1-0.7 4.3-2.8 4.9-0.3 0.1-0.6 0.2-1 0.2z" fill="#ACD598" p-id="1817"></path><path d="M629.7 855.4c-2.2 0-4-1.8-4-4 0-1.8 1.2-3.3 3-3.8l23.4-6.3c2.1-0.6 4.3 0.7 4.9 2.8 0.6 2.1-0.7 4.3-2.8 4.9l-23.4 6.3c-0.4 0.1-0.7 0.1-1.1 0.1z" fill="#ACD598" p-id="1818"></path><path d="M985.2 839.6c-0.8 0-1.7-0.3-2.3-0.8L958.2 821c-1.8-1.3-2.2-3.8-0.9-5.6s3.8-2.2 5.6-0.9l24.8 17.8c1.8 1.3 2.2 3.8 0.9 5.6-0.8 1.1-2 1.7-3.4 1.7z" fill="#FFF100" p-id="1819"></path><path d="M964 843.1c-2.2 0-4-1.8-4-4 0-0.8 0.3-1.6 0.7-2.3l17.7-24.7c1.2-1.8 3.7-2.3 5.6-1 1.8 1.2 2.3 3.7 1 5.6 0 0.1-0.1 0.1-0.1 0.2l-17.7 24.7c-0.7 0.9-1.9 1.5-3.2 1.5z" fill="#FFF100" p-id="1820"></path><path d="M759.6 833.4c-3.4 0-6.8-1.4-9.1-3.8l-0.3-0.3c-4.9-5.3-4.6-13.4 0.6-18.3 5.3-4.9 13.4-4.6 18.3 0.6 4.9 5.3 4.6 13.4-0.6 18.3-2.4 2.2-5.6 3.4-8.9 3.5z m-5.3-7.7c2.9 2.9 7.7 2.9 10.6-0.1 2.9-2.9 2.9-7.7-0.1-10.6-2.9-2.9-7.6-2.9-10.6 0.1l-1.9-1.9 1.9 1.9c-2.9 2.9-2.9 7.7 0.1 10.6z" fill="#FF8A8A" p-id="1821"></path><path d="M960.2 473c-7 0-12.7-5.7-12.7-12.7s5.7-12.7 12.7-12.7 12.7 5.7 12.7 12.7-5.6 12.7-12.7 12.7z m0-20.4c-4.2 0-7.6 3.4-7.6 7.6s3.4 7.6 7.6 7.6 7.6-3.4 7.6-7.6c0-4.1-3.4-7.6-7.6-7.6z" fill="#EB6877" p-id="1822"></path><path d="M920.5 924.9c-13.3 0-24-10.7-24-24s10.7-24 24-24 24 10.7 24 24-10.7 24-24 24z m0-40c-8.8 0-16 7.2-16 16s7.2 16 16 16 16-7.2 16-16-7.1-16-16-16z" fill="#7EDDDC" p-id="1823"></path><path d="M717.7 953.5c-6.6 0-12-5.4-12-12s5.4-12 12-12 12 5.4 12 12-5.3 12-12 12z m0-19.2c-4 0-7.2 3.2-7.2 7.2s3.2 7.2 7.2 7.2 7.2-3.2 7.2-7.2-3.2-7.2-7.2-7.2z" fill="#FF8700" p-id="1824"></path><path d="M213.3 947.4a7 7 0 1 0 14 0 7 7 0 1 0-14 0z" fill="#D3D462" p-id="1825"></path><path d="M871.9 794.9a9 9 0 1 0 18 0 9 9 0 1 0-18 0z" fill="#A657FF" p-id="1826"></path><path d="M170.7 857.5a4 4 0 1 0 8 0 4 4 0 1 0-8 0z" fill="#E4B6FF" p-id="1827"></path><path d="M452.2 881.8a6 6 0 1 0 12 0 6 6 0 1 0-12 0z" fill="#F78282" p-id="1828"></path><path d="M981 388.8a6 6 0 1 0 12 0 6 6 0 1 0-12 0z" fill="#B4DB61" p-id="1829"></path><path d="M112.7 927.5c-9.3 0-16.7-7.5-16.7-16.7 0-4.4 1.7-8.6 4.8-11.7l0.1-0.2c3.1-3.1 7.4-4.9 11.8-4.9 9.3 0 16.7 7.5 16.7 16.7 0 9.4-7.5 16.9-16.7 16.8z m-7.5-24.2c-4.2 4.2-4.1 10.9 0 15.1 4.2 4.2 10.9 4.1 15.1 0 4.2-4.2 4.1-10.9 0-15.1-2-2-4.7-3.1-7.5-3.1-2.9-0.1-5.7 1.1-7.6 3.1z m-2.2-2.2z" fill="#FF8A8A" p-id="1830"></path><path d="M41.8 817.4c-7.7 0-14-6.3-14-14 0-3.7 1.5-7.2 4.1-9.9l0.1-0.1c5.5-5.4 14.4-5.3 19.8 0.2s5.3 14.4-0.2 19.8c-2.7 2.6-6.2 4-9.8 4z m-4.3-18.2c-2.8 2.4-3.2 6.6-0.8 9.4s6.6 3.2 9.4 0.8 3.2-6.6 0.8-9.4c-2.4-2.8-6.6-3.2-9.4-0.8z m-2.8-2.9z" fill="#B3D465" p-id="1831"></path><path d="M947.7 269a3.5 3.5 0 1 0 7 0 3.5 3.5 0 1 0-7 0z" fill="#D3A884" p-id="1832"></path><path d="M968.7 575a3.5 3.5 0 1 0 7 0 3.5 3.5 0 1 0-7 0z" fill="#22B4FF" p-id="1833"></path><path d="M796.7 905a7.5 7.5 0 1 0 15 0 7.5 7.5 0 1 0-15 0z" fill="#F2ED62" p-id="1834"></path><path d="M559.7 928.2c-9.8 0-17.7-7.9-17.7-17.7 0-4.7 1.8-9.1 5.1-12.5l0.1-0.1c6.9-6.9 18.1-6.9 25.1 0 6.9 6.9 6.9 18.1 0 25.1-3.4 3.4-7.9 5.2-12.6 5.2m-11.4-18c0 6.4 5.2 11.6 11.6 11.6s11.5-5.2 11.5-11.6c0-6.4-5.2-11.5-11.6-11.5-6.4 0.1-11.5 5.2-11.5 11.5z" fill="#30D9DB" p-id="1835"></path><path d="M364 938.9a9 9 0 1 0 18 0 9 9 0 1 0-18 0z" fill="#EBB4BE" p-id="1836"></path><path d="M974.2 116.7a11 11 0 1 0 22 0 11 11 0 1 0-22 0z" fill="#C6F4F2" p-id="1837"></path><path d="M142.4 323.9l640.9-171.3c16-4.3 32.5 5.2 36.7 21.2l133.3 497.4c4.3 16-5.2 32.5-21.2 36.8L291.2 879.3c-16 4.3-32.5-5.2-36.7-21.2L121.1 360.7c-4.2-16 5.3-32.5 21.3-36.8z" fill="#358AFE" p-id="1838"></path><path d="M254.4 899.4c-18.1 0-33.9-12.2-38.6-29.7L82.5 372.2c-5.7-21.3 6.9-43.3 28.3-49h0.1L784.7 150c21.3-5.6 43.2 7 48.9 28.3l133.3 497.4c5.7 21.3-6.9 43.3-28.3 49h-0.1L264.7 898c-3.4 0.9-6.8 1.4-10.3 1.4zM115.9 342.6c-10.7 2.9-17 13.8-14.1 24.5l133.3 497.4c2.9 10.7 13.8 17 24.5 14.1l673.9-173.3c10.6-2.9 17-13.8 14.1-24.5L814.3 183.5c-2.9-10.7-13.8-17-24.5-14.1L115.9 342.6z" fill="#222222" p-id="1839"></path><path d="M211.7 827.5c-5.5 0-10-4.5-10-10 0-4.6 3.1-8.6 7.5-9.7l196-50c5.4-1.2 10.7 2.2 12 7.5 1.2 5.2-1.9 10.4-7 11.8l-196 50c-0.8 0.3-1.7 0.4-2.5 0.4z" fill="#222222" p-id="1840"></path><path d="M101.7 67.5h772c16.6 0 30 13.4 30 30v580c0 16.6-13.4 30-30 30h-772c-16.6 0-30-13.4-30-30v-580c0-16.6 13.4-30 30-30z" fill="#FFFFFF" p-id="1841"></path><path d="M136.7 67.5h736c16.6 0 30 13.4 30 30v580c0 16.6-13.4 30-30 30h-736c-16.6 0-30-13.4-30-30v-580c0-16.6 13.4-30 30-30z" fill="#FFDF00" p-id="1842"></path><path d="M106.7 544.5l182-130 120 120 361-293 134 145-5 321-792-10v-153z" fill="#57EBBF" p-id="1843"></path><path d="M873.7 717.5h-762c-22.1 0-40-17.9-40-40v-394c0-5.5 4.5-10 10-10s10 4.5 10 10v394c0 11 9 20 20 20h762c11 0 20-9 20-20v-570c0-11-9-20-20-20h-38.5c-5.5 0-10-4.5-10-10s4.5-10 10-10h38.5c22.1 0 40 17.9 40 40v570c0 22.1-17.9 40-40 40zM81.7 166c-5.5 0-10-4.5-10-10v-48.5c0-22.1 17.9-40 40-40h582.5c5.5 0 10 4.5 10 10s-4.5 10-10 10H111.7c-11 0-20 9-20 20V156c0 5.5-4.5 10-10 10z" fill="#222222" p-id="1844"></path><path d="M749.7 78.5a16 16 0 1 0 32 0 16 16 0 1 0-32 0zM64.7 220.5a16 16 0 1 0 32 0 16 16 0 1 0-32 0z" p-id="1845"></path><path d="M216.7 233.5a96 96 0 1 0 192 0 96 96 0 1 0-192 0z" fill="#FFFFFF" p-id="1846"></path><path d="M245.7 232.5a85 85 0 1 0 170 0 85 85 0 1 0-170 0z" fill="#EB6877" p-id="1847"></path><path d="M312.7 339.5c-58.5 0-106-47.5-106-106s47.5-106 106-106 106 47.5 106 106c-0.1 58.5-47.5 105.9-106 106z m0-192c-47.5 0-86 38.5-86 86s38.5 86 86 86 86-38.5 86-86-38.5-86-86-86zM88.2 574c-5.5 0-10-4.5-10-10 0-3.2 1.5-6.2 4.1-8.1l198.5-144.5c4.1-3 9.7-2.4 13.2 1.2l91 97c3.8 4 3.6 10.4-0.5 14.1s-10.4 3.6-14.1-0.5l-85-90.6L94.1 572.1c-1.7 1.2-3.8 1.9-5.9 1.9z" fill="#222222" p-id="1848"></path><path d="M394.7 544.5c-2.8 0-5.5-1.2-7.4-3.2l-24-26c-3.7-4.1-3.4-10.4 0.7-14.1 4-3.6 10.2-3.4 14 0.6l17.8 19.2 311.7-243.3c4.4-3.4 10.6-2.6 14 1.7 3.4 4.4 2.6 10.6-1.7 14l-319 249c-1.7 1.4-3.9 2.1-6.1 2.1z" fill="#222222" p-id="1849"></path><path d="M900.7 394.5c-2.8 0-5.4-1.2-7.3-3.2L767.6 256.1l-53.8 42.3c-4.3 3.5-10.6 2.9-14.1-1.4s-2.9-10.6 1.4-14.1l0.3-0.3 61-48c4.1-3.2 10-2.8 13.5 1l132 142c3.8 4 3.5 10.4-0.5 14.1-1.8 1.9-4.2 2.8-6.7 2.8z m-1 161h-176c-5.5 0-10-4.5-10-10s4.5-10 10-10h176c5.5 0 10 4.5 10 10s-4.5 10-10 10z m-2 72h-340c-5.5 0-10-4.5-10-10s4.5-10 10-10h340c5.5 0 10 4.5 10 10s-4.5 10-10 10z" fill="#222222" p-id="1850"></path></svg>